<?xml version="1.0" encoding="UTF-8" standalone="no"?>
<svg xmlns:svg="http://www.w3.org/2000/svg" xmlns="http://www.w3.org/2000/svg" version="1.0" viewBox="50 50 1255 297" width="1255" height="297" xml:space="preserve">
<g transform="translate(50,50.000014)">
<polygon points="8.003,78.999 0,73.999 128.501,0 128.501,8.999 8.003,78.999 " />
<polygon points="8.003,217.998 0,222.998 0,73.999 8.003,78.999 8.003,217.998 " />
<polygon points="128.501,287.998 128.501,297.002 0,222.998 8.003,217.998 128.501,287.998 " />
<polygon points="130.503,258.994 126.504,266.006 27.5,208.994 31.504,202.002 130.503,258.994 " />
<polygon points="249.004,217.998 253.003,220.498 253.003,225.01 128.501,297.002 128.501,287.998 249.004,217.998 " />
<polygon points="249.004,78.999 253.003,76.499 257.002,78.999 257.002,217.998 253.003,220.498 249.004,217.998 249.004,78.999 " />
<polygon points="128.501,8.999 128.501,0 253.003,72.002 253.003,76.499 249.004,78.999 128.501,8.999 " />
<polygon points="378.003,287.998 378.003,297.002 253.003,225.01 253.003,220.498 257.002,217.998 378.003,287.998 " />
<polygon points="498.501,217.998 502.5,220.498 502.5,225.01 378.003,297.002 378.003,287.998 498.501,217.998 " />
<polygon points="474.502,202.002 478.501,208.994 380,266.006 376.001,258.994 474.502,202.002 " />
<polygon points="498.501,78.999 502.5,76.499 506.504,78.999 506.504,217.998 502.5,220.498 498.501,217.998 498.501,78.999 " />
<polygon points="378.003,8.999 378.003,0 502.5,72.002 502.5,76.499 498.501,78.999 378.003,8.999 " />
<polygon points="257.002,78.999 253.003,76.499 253.003,72.002 378.003,0 378.003,8.999 257.002,78.999 " />
<polygon points="627.5,287.998 627.5,297.002 502.5,225.01 502.5,220.498 506.504,217.998 627.5,287.998 " />
<polygon points="748.008,217.998 751.992,220.498 751.992,225.01 627.5,297.002 627.5,287.998 748.008,217.998 " />
<polygon points="724.004,202.002 728.008,208.994 629.502,266.006 625.503,258.994 724.004,202.002 " />
<polygon points="748.008,78.999 751.992,76.499 755.996,78.999 755.996,217.998 751.992,220.498 748.008,217.998 748.008,78.999 " />
<polygon points="627.5,8.999 627.5,0 751.992,72.002 751.992,76.499 748.008,78.999 627.5,8.999 " />
<polygon points="506.504,78.999 502.5,76.499 502.5,72.002 627.5,0 627.5,8.999 506.504,78.999 " />
<polygon points="876.504,287.998 876.504,297.002 751.992,225.01 751.992,220.498 755.996,217.998 876.504,287.998 " />
<polygon points="997.5,217.998 1001.504,220.498 1001.504,225.01 876.504,297.002 876.504,287.998 997.5,217.998 " />
<polygon points="973.496,202.002 977.5,208.994 878.496,266.006 874.512,258.994 973.496,202.002 " />
<polygon points="997.5,78.999 1001.504,76.499 1005.508,78.999 1005.508,217.998 1001.504,220.498 997.5,217.998 997.5,78.999 " />
<polygon points="876.504,8.999 876.504,0 1001.504,72.002 1001.504,76.499 997.5,78.999 876.504,8.999 " />
<polygon points="874.512,38.003 878.496,31.001 977.5,88.003 973.496,95 874.512,38.003 " />
<polygon points="755.996,78.999 751.992,76.499 751.992,72.002 876.504,0 876.504,8.999 755.996,78.999 " />
<polygon points="1125.996,287.998 1125.996,297.002 1001.504,225.01 1001.504,220.498 1005.508,217.998 1125.996,287.998 " />
<polygon points="1247.012,217.998 1255,222.998 1125.996,297.002 1125.996,287.998 1247.012,217.998 " />
<polygon points="1223.008,202.002 1226.992,208.994 1128.008,266.006 1124.004,258.994 1223.008,202.002 " />
<polygon points="1247.012,78.999 1255,73.999 1255,222.998 1247.012,217.998 1247.012,78.999 " />
<polygon points="1125.996,8.999 1125.996,0 1255,73.999 1247.012,78.999 1125.996,8.999 " />
<polygon points="1124.004,38.003 1128.008,31.001 1226.992,88.003 1223.008,95 1124.004,38.003 " />
<polygon points="1005.508,78.999 1001.504,76.499 1001.504,72.002 1125.996,0 1125.996,8.999 1005.508,78.999 " />
<rect width="8" height="114.241" x="74.973" y="5.8800001" transform="matrix(0.4967,0.8679,-0.8679,0.4967,94.4467,-36.8604)" />
<rect width="8" height="113.999" x="223.50101" y="91.499001" />
<rect width="8" height="113.805" x="423.21899" y="6.0999999" transform="matrix(-0.4959,0.8684,-0.8684,-0.4959,693.8522,-276.7567)" />
<rect width="8" height="113.81" x="672.724" y="6.098" transform="matrix(-0.4959,0.8684,-0.8684,-0.4959,1067.0966,-493.415)" />
</g>
</svg>
